<svg version="1.1" id="Layer_1" xmlns="http://www.w3.org/2000/svg" xmlns:xlink="http://www.w3.org/1999/xlink" x="0px" y="0px"
	 width="100%" viewBox="0 0 512 512" 
	 xml:space="preserve">
<path fill="transparent" opacity="1.000000" stroke="none" 
	d="
M513.000000,175.000000 
	C513.000000,287.972534 513.000000,400.445068 513.000000,512.958801 
	C342.402466,512.958801 171.804901,512.958801 1.103673,512.958801 
	C1.103673,342.444153 1.103673,171.888245 1.103673,1.166158 
	C171.666534,1.166158 342.333252,1.166158 513.000000,1.166158 
	C513.000000,58.861729 513.000000,116.680862 513.000000,175.000000 
M335.586487,452.712524 
	C335.465637,451.975433 335.344788,451.238312 335.199707,449.752289 
	C334.327484,446.432983 333.455261,443.113647 332.481445,438.979553 
	C331.919983,436.719879 331.151611,434.488159 330.841461,432.194489 
	C330.252655,427.839966 328.233063,426.404449 323.613861,426.443085 
	C293.791412,426.692505 263.965912,426.570740 234.141403,426.570801 
	C222.978043,426.570831 211.813538,426.495087 200.652649,426.661102 
	C199.149826,426.683472 196.639877,427.619049 196.334946,428.647339 
	C193.997223,436.530853 192.089920,444.541992 190.002899,452.693115 
	C196.392410,452.693115 202.209610,452.693115 208.949417,452.847229 
	C224.557785,452.855316 240.166183,452.888947 255.774506,452.865784 
	C282.171692,452.826630 308.568787,452.751526 335.586487,452.712524 
M161.117844,467.908417 
	C155.626587,467.901245 150.132645,467.781738 144.644699,467.913269 
	C136.441818,468.109863 130.451233,474.113922 130.267822,482.110931 
	C130.082535,490.189514 136.232651,496.717804 144.578979,496.942902 
	C150.725189,497.108643 156.882187,496.873810 163.956406,496.969635 
	C235.926895,496.978821 307.897400,496.988312 379.867889,496.993408 
	C380.866669,496.993469 381.873779,497.009827 382.862823,496.895630 
	C388.946686,496.193054 393.696838,492.014740 395.177582,486.110168 
	C397.742218,475.883453 390.892029,467.891754 379.425446,467.888489 
	C308.454437,467.868317 237.483459,467.877167 166.512466,467.890076 
	C165.019882,467.890320 163.527313,468.054382 161.117844,467.908417 
M70.119667,48.036072 
	C59.294224,48.023109 48.468731,47.982986 37.643356,48.004143 
	C24.457262,48.029911 17.004282,55.554352 17.002817,68.875542 
	C16.992395,163.641464 16.995869,258.407379 17.006926,353.173309 
	C17.007130,354.929443 17.154879,356.685608 17.236485,358.501770 
	C35.564514,358.501770 53.350784,358.501770 72.037483,358.690826 
	C72.536736,358.710724 73.035980,358.748047 73.535233,358.748077 
	C213.499435,358.752625 353.463623,358.755463 493.427826,358.745087 
	C494.868500,358.744965 496.309143,358.569916 497.693451,358.480194 
	C497.832458,357.562897 497.971497,357.073639 497.971588,356.584381 
	C497.984589,259.942505 498.018799,163.300613 497.947327,66.658798 
	C497.939453,56.001678 489.844910,48.175964 479.129852,48.032837 
	C469.134186,47.899323 459.135315,48.002193 449.137878,48.001514 
	C442.197205,48.001041 435.256561,48.001423 428.283661,48.001423 
	C428.283661,55.976116 428.283661,63.370430 428.283661,71.075790 
	C438.910889,71.075790 449.217255,71.042336 459.523315,71.085243 
	C469.722992,71.127716 474.896881,76.267921 474.899658,86.481400 
	C474.920776,164.294846 474.918793,242.108276 474.901398,319.921722 
	C474.899078,330.353546 470.011810,335.379700 459.709076,335.386017 
	C400.224274,335.422455 340.739502,335.411896 281.254700,335.391724 
	C274.664642,335.389465 273.224213,334.227844 271.658997,327.219971 
	C273.492828,321.434875 275.067413,320.425751 282.608612,320.424530 
	C339.587860,320.415405 396.567139,320.419525 453.546387,320.419525 
	C455.499969,320.419525 457.453522,320.419525 459.542297,320.419525 
	C459.542297,242.040802 459.542297,164.192749 459.542297,86.330208 
	C448.915741,86.330208 438.654694,86.330208 427.959930,86.330208 
	C427.959930,88.533989 427.959930,90.492500 427.959930,92.451004 
	C427.959930,143.432449 427.962677,194.413879 427.958405,245.395325 
	C427.956970,262.191498 419.590302,270.576874 402.807465,270.577820 
	C305.842773,270.583221 208.878067,270.583771 111.913361,270.577148 
	C95.297302,270.576019 86.930481,262.278656 86.928337,245.820587 
	C86.921677,194.672546 86.925812,143.524490 86.925758,92.376442 
	C86.925758,90.427185 86.925758,88.477936 86.925758,86.285202 
	C81.289375,86.285202 76.172325,86.285202 70.126549,86.116058 
	C65.196510,86.116058 60.266476,86.116058 55.291855,86.116058 
	C55.291855,164.482605 55.291855,242.266220 55.291855,320.092590 
	C60.729393,320.092590 65.855865,320.092590 71.892975,320.346985 
	C74.056587,320.371155 76.220207,320.416290 78.383820,320.416443 
	C132.322723,320.420380 186.261627,320.415985 240.200531,320.423401 
	C248.163635,320.424469 249.650589,321.418213 251.389084,328.658875 
	C250.385147,334.707916 246.082031,335.443817 240.985016,335.438629 
	C186.534500,335.383392 132.083939,335.400421 77.633385,335.420349 
	C75.482826,335.421143 73.332352,335.649200 70.261421,335.476562 
	C64.766312,335.425995 59.269722,335.438568 53.776424,335.310272 
	C45.205193,335.110168 40.022045,330.073853 40.016865,321.575226 
	C39.968842,242.783020 39.969135,163.990723 40.007435,85.198502 
	C40.011646,76.540184 45.364071,71.291420 54.065632,71.089943 
	C59.723152,70.958939 65.383270,70.940025 71.960396,71.026657 
	C76.844284,71.026657 81.728180,71.026657 86.625587,71.026657 
	C86.625587,63.040802 86.625587,55.697456 86.625587,48.177872 
	C81.232841,48.177872 76.143539,48.177872 70.119667,48.036072 
M122.125229,15.026911 
	C117.801598,15.019835 113.477966,15.015624 109.154343,15.004798 
	C105.543938,14.995758 102.386581,16.700594 102.240219,20.149275 
	C101.807045,30.355434 102.085289,40.591785 102.085289,50.821091 
	C109.107376,50.821091 115.574715,50.821091 122.963112,50.973095 
	C155.238678,50.981483 187.514511,51.059498 219.789520,50.930210 
	C225.213409,50.908485 228.790283,52.636147 229.836060,58.830910 
	C228.952957,64.303055 225.453720,66.044235 220.261856,66.041054 
	C187.535187,66.021004 154.808426,66.115288 121.142197,66.027321 
	C114.869270,66.027321 108.596336,66.027321 101.923317,66.027321 
	C101.923317,68.060135 101.923309,69.524933 101.923309,70.989731 
	C101.923363,129.464340 101.923340,187.938934 101.924477,246.413544 
	C101.924492,247.246429 101.909286,248.080887 101.952454,248.911942 
	C102.144119,252.602066 104.157234,255.100815 107.716774,255.308258 
	C112.815376,255.605392 117.955017,255.198425 123.868088,255.348206 
	C125.029144,255.421204 126.190201,255.557968 127.351265,255.558105 
	C219.478943,255.569214 311.606628,255.575775 403.734314,255.558884 
	C410.891510,255.557571 412.946533,253.457001 412.947937,246.314606 
	C412.959473,187.672745 412.956299,129.030899 412.943024,70.389038 
	C412.942688,68.967239 412.773712,67.545464 412.675720,66.002548 
	C410.365356,66.002548 408.537109,66.002556 406.708893,66.002556 
	C357.729614,66.002480 308.750336,66.007942 259.771057,65.995796 
	C253.143921,65.994148 251.049683,64.285683 250.008972,57.354053 
	C251.253754,52.132420 254.945938,50.949516 259.791595,50.956257 
	C309.082733,51.024818 358.374023,50.998138 407.665253,50.998135 
	C409.405090,50.998135 411.144958,50.998138 412.955475,50.998138 
	C412.955475,41.898720 412.959595,33.573753 412.954315,25.248793 
	C412.948944,16.754467 411.215088,15.003049 402.796722,15.002899 
	C311.208252,15.001276 219.619781,15.000764 128.031311,15.010641 
	C126.371185,15.010820 124.711067,15.142328 122.125229,15.026911 
M70.233177,373.735138 
	C52.621727,373.735138 35.010277,373.735138 16.966543,373.735138 
	C16.966543,379.335785 16.955280,384.619904 16.972704,389.903900 
	C16.978731,391.732239 16.890081,393.582367 17.129250,395.384735 
	C18.210205,403.530731 24.624146,410.740204 32.829235,411.053406 
	C47.913719,411.629242 63.036251,411.208466 79.028061,411.454834 
	C80.192947,411.490051 81.357834,411.556122 82.522720,411.556152 
	C213.636642,411.561096 344.750580,411.562225 475.864502,411.549774 
	C477.692963,411.549591 479.533051,411.474640 481.347900,411.264130 
	C489.455139,410.323639 496.185150,405.110687 497.245911,397.039673 
	C498.245026,389.437561 497.460236,381.600983 497.460236,373.752686 
	C496.309235,373.752686 495.311676,373.752655 494.314117,373.752655 
	C354.537018,373.752747 214.759903,373.752258 74.982788,373.762543 
	C73.656815,373.762634 72.330856,373.907043 70.233177,373.735138 
z"/>
<path fill="#98E28D" opacity="1.000000" stroke="none" 
	d="
M122.081688,66.171806 
	C154.808426,66.115288 187.535187,66.021004 220.261856,66.041054 
	C225.453720,66.044235 228.952957,64.303055 230.398849,58.494194 
	C237.254654,58.136810 243.547684,58.116142 249.840698,58.095470 
	C251.049683,64.285683 253.143921,65.994148 259.771057,65.995796 
	C308.750336,66.007942 357.729614,66.002480 406.708893,66.002556 
	C408.537109,66.002556 410.365356,66.002548 412.675720,66.002548 
	C412.773712,67.545464 412.942688,68.967239 412.943024,70.389038 
	C412.956299,129.030899 412.959473,187.672745 412.947937,246.314606 
	C412.946533,253.457001 410.891510,255.557571 403.734314,255.558884 
	C311.606628,255.575775 219.478943,255.569214 127.351265,255.558105 
	C126.190201,255.557968 125.029144,255.421204 123.445282,254.791382 
	C122.694870,251.943481 122.082672,249.652557 122.081215,247.361252 
	C122.042885,186.964798 122.067680,126.568298 122.081688,66.171806 
M261.632050,156.180771 
	C266.267120,141.097778 270.927704,126.022560 275.524689,110.927948 
	C277.360352,104.900421 275.758179,101.000771 271.013214,99.519768 
	C266.629150,98.151413 262.984497,100.575363 261.220001,106.283157 
	C252.243454,135.320435 243.301331,164.368393 234.384125,193.423965 
	C232.595413,199.252243 234.410843,203.555801 239.011383,204.825867 
	C243.327225,206.017319 247.064194,203.445862 248.780670,197.891876 
	C252.998215,184.245193 257.140930,170.575363 261.632050,156.180771 
M298.845337,179.353210 
	C297.785492,180.413055 296.714325,181.461914 295.667725,182.534683 
	C291.308777,187.002609 290.833069,191.346542 294.327209,194.680252 
	C297.766754,197.961853 301.831543,197.525024 306.136230,193.254791 
	C314.412537,185.044693 322.688995,176.833344 330.860809,168.519699 
	C338.760010,160.483398 338.801819,150.334534 330.966797,142.364822 
	C322.794342,134.051895 314.512329,125.846207 306.239563,117.632538 
	C301.818817,113.243347 297.459015,112.817062 294.104431,116.323235 
	C290.870178,119.703651 291.339142,123.858261 295.550690,128.097702 
	C303.296783,135.895111 310.968475,143.772903 318.917755,151.358826 
	C322.138397,154.432281 321.946564,156.522720 318.828583,159.476334 
	C312.181366,165.773132 305.823242,172.375198 298.845337,179.353210 
M200.068207,173.431793 
	C195.475906,168.848038 191.018555,164.117294 186.243378,159.732681 
	C183.107269,156.853058 183.467819,154.789780 186.369354,151.989319 
	C194.627823,144.018463 202.730545,135.882538 210.759949,127.679825 
	C214.147079,124.219566 214.076035,119.453217 210.989456,116.559288 
	C208.021286,113.776375 203.565964,113.857643 200.248367,117.117027 
	C191.229050,125.978027 182.195877,134.832397 173.428436,143.939896 
	C166.866165,150.756729 166.856796,161.060883 173.405899,167.873016 
	C182.167313,176.986328 191.188904,185.852493 200.209106,194.712448 
	C203.658585,198.100632 208.410965,198.046127 211.317215,194.949387 
	C214.081711,192.003693 213.952896,187.546783 210.779678,184.187744 
	C207.467957,180.682083 203.979660,177.343231 200.068207,173.431793 
z"/>
<path fill="#87B6E2" opacity="1.000000" stroke="none" 
	d="
M251.703552,327.921631 
	C249.650589,321.418213 248.163635,320.424469 240.200531,320.423401 
	C186.261627,320.415985 132.322723,320.420380 78.383820,320.416443 
	C76.220207,320.416290 74.056587,320.371155 71.450363,319.744812 
	C71.023582,241.523514 71.039429,163.904358 71.055267,86.285202 
	C76.172325,86.285202 81.289375,86.285202 86.925758,86.285202 
	C86.925758,88.477936 86.925758,90.427185 86.925758,92.376442 
	C86.925812,143.524490 86.921677,194.672546 86.928337,245.820587 
	C86.930481,262.278656 95.297302,270.576019 111.913361,270.577148 
	C208.878067,270.583771 305.842773,270.583221 402.807465,270.577820 
	C419.590302,270.576874 427.956970,262.191498 427.958405,245.395325 
	C427.962677,194.413879 427.959930,143.432449 427.959930,92.451004 
	C427.959930,90.492500 427.959930,88.533989 427.959930,86.330208 
	C438.654694,86.330208 448.915741,86.330208 459.542297,86.330208 
	C459.542297,164.192749 459.542297,242.040802 459.542297,320.419525 
	C457.453522,320.419525 455.499969,320.419525 453.546387,320.419525 
	C396.567139,320.419525 339.587860,320.415405 282.608612,320.424530 
	C275.067413,320.425751 273.492828,321.434875 271.076965,327.591797 
	C264.231140,327.949646 257.967346,327.935638 251.703552,327.921631 
z"/>
<path fill="#A29A9A" opacity="1.000000" stroke="none" 
	d="
M251.546326,328.290253 
	C257.967346,327.935638 264.231140,327.949646 270.918243,327.944183 
	C273.224213,334.227844 274.664642,335.389465 281.254700,335.391724 
	C340.739502,335.411896 400.224274,335.422455 459.709076,335.386017 
	C470.011810,335.379700 474.899078,330.353546 474.901398,319.921722 
	C474.918793,242.108276 474.920776,164.294846 474.899658,86.481400 
	C474.896881,76.267921 469.722992,71.127716 459.523315,71.085243 
	C449.217255,71.042336 438.910889,71.075790 428.283661,71.075790 
	C428.283661,63.370430 428.283661,55.976116 428.283661,48.001423 
	C435.256561,48.001423 442.197205,48.001041 449.137878,48.001514 
	C459.135315,48.002193 469.134186,47.899323 479.129852,48.032837 
	C489.844910,48.175964 497.939453,56.001678 497.947327,66.658798 
	C498.018799,163.300613 497.984589,259.942505 497.971588,356.584381 
	C497.971497,357.073639 497.832458,357.562897 497.693451,358.480194 
	C496.309143,358.569916 494.868500,358.744965 493.427826,358.745087 
	C353.463623,358.755463 213.499435,358.752625 73.535233,358.748077 
	C73.035980,358.748047 72.536736,358.710724 71.565933,358.161987 
	C71.123528,350.345917 71.152687,343.058655 71.181839,335.771393 
	C73.332352,335.649200 75.482826,335.421143 77.633385,335.420349 
	C132.083939,335.400421 186.534500,335.383392 240.985016,335.438629 
	C246.082031,335.443817 250.385147,334.707916 251.546326,328.290253 
z"/>
<path fill="#E6E6E6" opacity="1.000000" stroke="none" 
	d="
M71.004890,373.984070 
	C72.330856,373.907043 73.656815,373.762634 74.982788,373.762543 
	C214.759903,373.752258 354.537018,373.752747 494.314117,373.752655 
	C495.311676,373.752655 496.309235,373.752686 497.460236,373.752686 
	C497.460236,381.600983 498.245026,389.437561 497.245911,397.039673 
	C496.185150,405.110687 489.455139,410.323639 481.347900,411.264130 
	C479.533051,411.474640 477.692963,411.549591 475.864502,411.549774 
	C344.750580,411.562225 213.636642,411.561096 82.522720,411.556152 
	C81.357834,411.556122 80.192947,411.490051 78.472305,411.036224 
	C73.246956,404.488281 71.018547,397.536560 70.983803,389.865601 
	C70.959824,384.571899 70.995743,379.277924 71.004890,373.984070 
M257.597870,398.912811 
	C263.610260,399.755188 267.258606,397.865723 267.951721,393.350830 
	C268.549683,389.455597 267.059540,386.379333 263.293335,385.038910 
	C259.458191,383.673950 255.969650,384.578979 253.949234,388.375031 
	C251.700836,392.599396 253.088409,396.009125 257.597870,398.912811 
z"/>
<path fill="#E5E5E6" opacity="1.000000" stroke="none" 
	d="
M249.924835,57.724762 
	C243.547684,58.116142 237.254654,58.136810 230.496475,58.145397 
	C228.790283,52.636147 225.213409,50.908485 219.789520,50.930210 
	C187.514511,51.059498 155.238678,50.981483 122.500793,50.439857 
	C122.375961,38.341934 122.713455,26.777246 123.050949,15.212558 
	C124.711067,15.142328 126.371185,15.010820 128.031311,15.010641 
	C219.619781,15.000764 311.208252,15.001276 402.796722,15.002899 
	C411.215088,15.003049 412.948944,16.754467 412.954315,25.248793 
	C412.959595,33.573753 412.955475,41.898720 412.955475,50.998138 
	C411.144958,50.998138 409.405090,50.998135 407.665253,50.998135 
	C358.374023,50.998138 309.082733,51.024818 259.791595,50.956257 
	C254.945938,50.949516 251.253754,52.132420 249.924835,57.724762 
M156.396240,38.932632 
	C161.733643,37.401569 164.138275,34.643776 163.480179,30.509369 
	C162.863129,26.632633 160.540970,24.235909 156.551407,24.014301 
	C152.377213,23.782440 149.611389,25.820841 148.722382,29.976604 
	C147.769531,34.430721 150.040268,37.294113 156.396240,38.932632 
M135.624969,25.830265 
	C132.721695,23.481586 129.283752,22.870010 126.580757,25.305603 
	C124.758934,26.947205 122.967789,30.215988 123.380867,32.321785 
	C123.846123,34.693546 126.492943,37.744358 128.760605,38.343552 
	C131.018509,38.940166 134.662491,37.561146 136.478882,35.794319 
	C139.223953,33.124187 138.741989,29.468727 135.624969,25.830265 
M179.158035,38.698586 
	C183.012573,39.586040 186.630890,38.674900 187.889175,34.937351 
	C188.700760,32.526699 188.366333,28.753817 186.906830,26.843206 
	C185.578735,25.104639 181.743195,23.970972 179.556885,24.566751 
	C177.366379,25.163673 175.018692,27.950172 174.231323,30.280828 
	C173.052505,33.770069 175.025406,36.696259 179.158035,38.698586 
z"/>
<path fill="#7F7474" opacity="1.000000" stroke="none" 
	d="
M70.721634,335.623962 
	C71.152687,343.058655 71.123528,350.345917 71.115715,358.067474 
	C53.350784,358.501770 35.564514,358.501770 17.236485,358.501770 
	C17.154879,356.685608 17.007130,354.929443 17.006926,353.173309 
	C16.995869,258.407379 16.992395,163.641464 17.002817,68.875542 
	C17.004282,55.554352 24.457262,48.029911 37.643356,48.004143 
	C48.468731,47.982986 59.294224,48.023109 70.577454,48.563671 
	C71.037567,56.351147 71.039894,63.611019 71.042221,70.870895 
	C65.383270,70.940025 59.723152,70.958939 54.065632,71.089943 
	C45.364071,71.291420 40.011646,76.540184 40.007435,85.198502 
	C39.969135,163.990723 39.968842,242.783020 40.016865,321.575226 
	C40.022045,330.073853 45.205193,335.110168 53.776424,335.310272 
	C59.269722,335.438568 64.766312,335.425995 70.721634,335.623962 
z"/>
<path fill="#E6E6E6" opacity="1.000000" stroke="none" 
	d="
M162.034760,468.142029 
	C163.527313,468.054382 165.019882,467.890320 166.512466,467.890076 
	C237.483459,467.877167 308.454437,467.868317 379.425446,467.888489 
	C390.892029,467.891754 397.742218,475.883453 395.177582,486.110168 
	C393.696838,492.014740 388.946686,496.193054 382.862823,496.895630 
	C381.873779,497.009827 380.866669,496.993469 379.867889,496.993408 
	C307.897400,496.988312 235.926895,496.978821 163.427460,496.548950 
	C161.581543,491.262848 159.405579,486.432861 159.202881,481.521454 
	C159.020721,477.108124 161.005722,472.605347 162.034760,468.142029 
z"/>
<path fill="#51B378" opacity="1.000000" stroke="none" 
	d="
M121.611938,66.099564 
	C122.067680,126.568298 122.042885,186.964798 122.081215,247.361252 
	C122.082672,249.652557 122.694870,251.943481 123.049805,254.663330 
	C117.955017,255.198425 112.815376,255.605392 107.716774,255.308258 
	C104.157234,255.100815 102.144119,252.602066 101.952454,248.911942 
	C101.909286,248.080887 101.924492,247.246429 101.924477,246.413544 
	C101.923340,187.938934 101.923363,129.464340 101.923309,70.989731 
	C101.923309,69.524933 101.923317,68.060135 101.923317,66.027321 
	C108.596336,66.027321 114.869270,66.027321 121.611938,66.099564 
z"/>
<path fill="#6E91CC" opacity="1.000000" stroke="none" 
	d="
M70.590912,86.200630 
	C71.039429,163.904358 71.023582,241.523514 70.995041,319.617615 
	C65.855865,320.092590 60.729393,320.092590 55.291855,320.092590 
	C55.291855,242.266220 55.291855,164.482605 55.291855,86.116058 
	C60.266476,86.116058 65.196510,86.116058 70.590912,86.200630 
z"/>
<path fill="#B7B5C2" opacity="1.000000" stroke="none" 
	d="
M70.619034,373.859619 
	C70.995743,379.277924 70.959824,384.571899 70.983803,389.865601 
	C71.018547,397.536560 73.246956,404.488281 78.029739,410.910339 
	C63.036251,411.208466 47.913719,411.629242 32.829235,411.053406 
	C24.624146,410.740204 18.210205,403.530731 17.129250,395.384735 
	C16.890081,393.582367 16.978731,391.732239 16.972704,389.903900 
	C16.955280,384.619904 16.966543,379.335785 16.966543,373.735138 
	C35.010277,373.735138 52.621727,373.735138 70.619034,373.859619 
z"/>
<path fill="#B1B1B1" opacity="1.000000" stroke="none" 
	d="
M208.026825,452.693115 
	C202.209610,452.693115 196.392410,452.693115 190.002899,452.693115 
	C192.089920,444.541992 193.997223,436.530853 196.334946,428.647339 
	C196.639877,427.619049 199.149826,426.683472 200.652649,426.661102 
	C211.813538,426.495087 222.978043,426.570831 234.141403,426.570801 
	C263.965912,426.570740 293.791412,426.692505 323.613861,426.443085 
	C328.233063,426.404449 330.252655,427.839966 330.841461,432.194489 
	C331.151611,434.488159 331.919983,436.719879 332.025391,439.436371 
	C294.687775,439.925842 257.806274,439.956116 220.924759,439.993011 
	C212.354309,440.001587 208.239166,444.064575 208.026825,452.693115 
z"/>
<path fill="#C5BEC7" opacity="1.000000" stroke="none" 
	d="
M208.488129,452.770172 
	C208.239166,444.064575 212.354309,440.001587 220.924759,439.993011 
	C257.806274,439.956116 294.687775,439.925842 332.076172,439.843750 
	C333.455261,443.113647 334.327484,446.432983 335.130554,450.487305 
	C335.029572,451.712097 334.997772,452.201813 334.965942,452.691559 
	C308.568787,452.751526 282.171692,452.826630 255.774506,452.865784 
	C240.166183,452.888947 224.557785,452.855316 208.488129,452.770172 
z"/>
<path fill="#C3C1D0" opacity="1.000000" stroke="none" 
	d="
M161.576294,468.025208 
	C161.005722,472.605347 159.020721,477.108124 159.202881,481.521454 
	C159.405579,486.432861 161.581543,491.262848 162.966431,496.472839 
	C156.882187,496.873810 150.725189,497.108643 144.578979,496.942902 
	C136.232651,496.717804 130.082535,490.189514 130.267822,482.110931 
	C130.451233,474.113922 136.441818,468.109863 144.644699,467.913269 
	C150.132645,467.781738 155.626587,467.901245 161.576294,468.025208 
z"/>
<path fill="#BDB8C5" opacity="1.000000" stroke="none" 
	d="
M122.588089,15.119734 
	C122.713455,26.777246 122.375961,38.341934 122.040268,50.363857 
	C115.574715,50.821091 109.107376,50.821091 102.085289,50.821091 
	C102.085289,40.591785 101.807045,30.355434 102.240219,20.149275 
	C102.386581,16.700594 105.543938,14.995758 109.154343,15.004798 
	C113.477966,15.015624 117.801598,15.019835 122.588089,15.119734 
z"/>
<path fill="#A19999" opacity="1.000000" stroke="none" 
	d="
M71.501312,70.948776 
	C71.039894,63.611019 71.037567,56.351147 71.044739,48.634571 
	C76.143539,48.177872 81.232841,48.177872 86.625587,48.177872 
	C86.625587,55.697456 86.625587,63.040802 86.625587,71.026657 
	C81.728180,71.026657 76.844284,71.026657 71.501312,70.948776 
z"/>
<path fill="#B1B1B1" opacity="1.000000" stroke="none" 
	d="
M335.276215,452.702026 
	C334.997772,452.201813 335.029572,451.712097 335.142639,450.861786 
	C335.344788,451.238312 335.465637,451.975433 335.276215,452.702026 
z"/>
<path fill="#030402" opacity="1.000000" stroke="none" 
	d="
M261.472900,156.547806 
	C257.140930,170.575363 252.998215,184.245193 248.780670,197.891876 
	C247.064194,203.445862 243.327225,206.017319 239.011383,204.825867 
	C234.410843,203.555801 232.595413,199.252243 234.384125,193.423965 
	C243.301331,164.368393 252.243454,135.320435 261.220001,106.283157 
	C262.984497,100.575363 266.629150,98.151413 271.013214,99.519768 
	C275.758179,101.000771 277.360352,104.900421 275.524689,110.927948 
	C270.927704,126.022560 266.267120,141.097778 261.472900,156.547806 
z"/>
<path fill="#020302" opacity="1.000000" stroke="none" 
	d="
M299.096008,179.102692 
	C305.823242,172.375198 312.181366,165.773132 318.828583,159.476334 
	C321.946564,156.522720 322.138397,154.432281 318.917755,151.358826 
	C310.968475,143.772903 303.296783,135.895111 295.550690,128.097702 
	C291.339142,123.858261 290.870178,119.703651 294.104431,116.323235 
	C297.459015,112.817062 301.818817,113.243347 306.239563,117.632538 
	C314.512329,125.846207 322.794342,134.051895 330.966797,142.364822 
	C338.801819,150.334534 338.760010,160.483398 330.860809,168.519699 
	C322.688995,176.833344 314.412537,185.044693 306.136230,193.254791 
	C301.831543,197.525024 297.766754,197.961853 294.327209,194.680252 
	C290.833069,191.346542 291.308777,187.002609 295.667725,182.534683 
	C296.714325,181.461914 297.785492,180.413055 299.096008,179.102692 
z"/>
<path fill="#020201" opacity="1.000000" stroke="none" 
	d="
M200.318390,173.681625 
	C203.979660,177.343231 207.467957,180.682083 210.779678,184.187744 
	C213.952896,187.546783 214.081711,192.003693 211.317215,194.949387 
	C208.410965,198.046127 203.658585,198.100632 200.209106,194.712448 
	C191.188904,185.852493 182.167313,176.986328 173.405899,167.873016 
	C166.856796,161.060883 166.866165,150.756729 173.428436,143.939896 
	C182.195877,134.832397 191.229050,125.978027 200.248367,117.117027 
	C203.565964,113.857643 208.021286,113.776375 210.989456,116.559288 
	C214.076035,119.453217 214.147079,124.219566 210.759949,127.679825 
	C202.730545,135.882538 194.627823,144.018463 186.369354,151.989319 
	C183.467819,154.789780 183.107269,156.853058 186.243378,159.732681 
	C191.018555,164.117294 195.475906,168.848038 200.318390,173.681625 
z"/>
<path fill="#070707" opacity="1.000000" stroke="none" 
	d="
M257.265991,398.745239 
	C253.088409,396.009125 251.700836,392.599396 253.949234,388.375031 
	C255.969650,384.578979 259.458191,383.673950 263.293335,385.038910 
	C267.059540,386.379333 268.549683,389.455597 267.951721,393.350830 
	C267.258606,397.865723 263.610260,399.755188 257.265991,398.745239 
z"/>
<path fill="#080808" opacity="1.000000" stroke="none" 
	d="
M156.008881,38.932388 
	C150.040268,37.294113 147.769531,34.430721 148.722382,29.976604 
	C149.611389,25.820841 152.377213,23.782440 156.551407,24.014301 
	C160.540970,24.235909 162.863129,26.632633 163.480179,30.509369 
	C164.138275,34.643776 161.733643,37.401569 156.008881,38.932388 
z"/>
<path fill="#070707" opacity="1.000000" stroke="none" 
	d="
M135.905640,26.112432 
	C138.741989,29.468727 139.223953,33.124187 136.478882,35.794319 
	C134.662491,37.561146 131.018509,38.940166 128.760605,38.343552 
	C126.492943,37.744358 123.846123,34.693546 123.380867,32.321785 
	C122.967789,30.215988 124.758934,26.947205 126.580757,25.305603 
	C129.283752,22.870010 132.721695,23.481586 135.905640,26.112432 
z"/>
<path fill="#050505" opacity="1.000000" stroke="none" 
	d="
M178.804962,38.521465 
	C175.025406,36.696259 173.052505,33.770069 174.231323,30.280828 
	C175.018692,27.950172 177.366379,25.163673 179.556885,24.566751 
	C181.743195,23.970972 185.578735,25.104639 186.906830,26.843206 
	C188.366333,28.753817 188.700760,32.526699 187.889175,34.937351 
	C186.630890,38.674900 183.012573,39.586040 178.804962,38.521465 
z"/>
</svg>